<?xml version="1.0"?>
<svg xmlns="http://www.w3.org/2000/svg" viewBox="-8 10 32 32">
    <path d="M 6 5 L 6 6.46875 L 6.0625 6.625 C 6.0825 6.677 8.0625 11.8865 8.0625 15.3125 L 8.0625 16.125 L 8.90625 16.28125 C 9.70725 16.42025 10.41 16.70825 11 17.03125 L 8.09375 17.34375 L 8.09375 18.25 C 8.09375 19.384 7.6195 20.79175 7.3125 21.71875 C 7.0885 22.39975 7 22.704 7 23 L 9 23.09375 C 9.018 22.98975 9.12475 22.62675 9.21875 22.34375 C 9.49375 21.50975 9.88425 20.33525 10.03125 19.15625 L 15.625 18.53125 L 14.34375 17.09375 C 14.26975 17.00975 12.62725 15.222 10.03125 14.5 C 9.85725 11.873 8.90975 8.75375 8.34375 7.09375 C 14.80775 8.08775 23 15.785 23 23 L 25 23 C 25 14.065 14.527 5 7 5 L 6 5 z M 6 25 C 6 25.306 5.245 26 4 26 L 4 28 C 5.187 28 6.26 27.5765 7 26.9375 C 7.74 27.5765 8.813 28 10 28 C 11.187 28 12.26 27.5765 13 26.9375 C 13.74 27.5765 14.813 28 16 28 C 17.187 28 18.26 27.5765 19 26.9375 C 19.74 27.5765 20.813 28 22 28 C 23.187 28 24.26 27.5765 25 26.9375 C 25.74 27.5765 26.813 28 28 28 L 28 26 C 26.776 26 26 25.297 26 25 L 24 25 C 24 25.306 23.244 26 22 26 C 20.776 26 20 25.297 20 25 L 18 25 C 18 25.306 17.244 26 16 26 C 14.776 26 14 25.297 14 25 L 12 25 C 12 25.306 11.245 26 10 26 C 8.776 26 8 25.297 8 25 L 6 25 z" transform="translate(-8 10)"/>
</svg>
